<?xml version="1.0" encoding="UTF-8"?>
<svg xmlns="http://www.w3.org/2000/svg" xmlns:xlink="http://www.w3.org/1999/xlink" width="24px" height="24px" viewBox="0 0 24 24" version="1.1">
<g id="surface1">
<path style="fill:none;stroke-width:2;stroke-linecap:round;stroke-linejoin:round;stroke:rgb(100%,100%,100%);stroke-opacity:1;stroke-miterlimit:4;" d="M 12 10.230469 L 3.085938 7.023438 M 12 10.230469 L 20.917969 7.035156 M 12 10.230469 L 12 20.878906 M 5.136719 18.578125 L 10.933594 20.625 C 11.328125 20.761719 11.527344 20.832031 11.730469 20.859375 C 11.910156 20.886719 12.089844 20.886719 12.269531 20.859375 C 12.472656 20.832031 12.671875 20.761719 13.066406 20.625 L 18.863281 18.578125 C 19.632812 18.304688 20.019531 18.171875 20.300781 17.925781 C 20.550781 17.710938 20.746094 17.4375 20.863281 17.128906 C 21 16.78125 21 16.375 21 15.558594 L 21 8.441406 C 21 7.625 21 7.21875 20.863281 6.871094 C 20.746094 6.5625 20.550781 6.289062 20.300781 6.074219 C 20.019531 5.828125 19.632812 5.695312 18.863281 5.421875 L 13.066406 3.375 C 12.671875 3.238281 12.472656 3.167969 12.269531 3.140625 C 12.089844 3.113281 11.910156 3.113281 11.730469 3.140625 C 11.527344 3.167969 11.328125 3.238281 10.933594 3.375 L 5.136719 5.421875 C 4.367188 5.695312 3.980469 5.828125 3.699219 6.074219 C 3.449219 6.289062 3.253906 6.5625 3.136719 6.871094 C 3 7.21875 3 7.625 3 8.441406 L 3 15.558594 C 3 16.375 3 16.78125 3.136719 17.128906 C 3.253906 17.4375 3.449219 17.710938 3.699219 17.925781 C 3.980469 18.171875 4.367188 18.304688 5.136719 18.578125 Z M 5.136719 18.578125 "/>
</g>
</svg>
